<?xml version="1.0" encoding="UTF-8"?>
<svg width="39px" height="38px" viewBox="0 0 39 38" version="1.1" xmlns="http://www.w3.org/2000/svg" xmlns:xlink="http://www.w3.org/1999/xlink">
    <!-- Generator: Sketch 55.1 (78136) - https://sketchapp.com -->
    <title>exchange</title>
    <desc>Created with Sketch.</desc>
    <g id="Page-1" stroke="none" stroke-width="1" fill="none" fill-rule="evenodd">
        <g id="01-1-currency_new_token" transform="translate(-1093.000000, -341.000000)" fill="#FFFFFF" fill-rule="nonzero">
            <g id="content" transform="translate(590.000000, 199.000000)">
                <g id="btn02" transform="translate(420.000000, 92.000000)">
                    <g id="exchange" transform="translate(83.000000, 50.000000)">
                        <path d="M26.5547835,12.5346044 C26.4300388,5.60200292 20.7494592,0 13.780298,0 C6.73289186,0 1,5.72706756 1,12.7673139 C1,19.3568809 6.0228753,24.7958531 12.4447694,25.4653956 C12.5699612,32.3979971 18.2500937,38 25.219702,38 C32.2671081,38 38,32.2729324 38,25.2326861 C37.9995529,18.6431191 32.9766776,13.2041469 26.5547835,12.5346044 Z M4,12.9997786 C4,7.48581992 8.48591923,3 14,3 C19.5140808,3 24,7.48581992 24,12.9997786 C24,18.5137373 19.5140808,23 14,23 C8.48591923,23 4,18.5137373 4,12.9997786 Z M24.9975639,35 C19.5580777,35 15.1231314,30.6239035 15,25.1991961 C20.5511018,24.6133775 25.0422987,20.4158247 26.0915735,15 C31.0943417,15.548511 35,19.8095756 35,24.9695765 C35.0004429,30.500433 30.5132322,35 24.9975639,35 Z" id="Shape"></path>
                        <path d="M32.0980357,7.24709237 L29.2157141,5.35664441 L27.6688097,7.59825917 L34.3796043,12 L39,5.30486981 L36.7008845,3.79665341 L34.7799524,6.58077587 C33.7400632,2.79762887 30.2038859,0 26,0 L26,2.70128311 C28.9123362,2.70128311 31.3647569,4.63180011 32.0980357,7.24709237 Z" id="Path"></path>
                        <path d="M6.9015025,29.7529076 L9.78428587,31.6433556 L11.3311903,29.4017408 L4.61993393,25 L0,31.6951302 L2.29911555,33.2033466 L4.2200476,30.4192241 C5.25947501,34.2023711 8.79611409,37 13,37 L13,34.2987169 C10.0876638,34.2991671 7.63478137,32.3686501 6.9015025,29.7529076 Z" id="Path"></path>
                        <path d="M14.995,8 C16.705,8 17.32,8.825 16.87,10.49 L16.45,12.05 C16.255,12.785 15.745,13.22 14.92,13.37 C15.64,13.64 15.88,14.195 15.64,15.05 L14.92,17.78 C14.65,18.755 13.915,19.235 12.67,19.235 L10,19.235 L11.38,14.045 L10.465,14.045 L10.84,12.62 L11.77,12.62 L13,8 L14.995,8 Z M15.385,10.4 C15.55,9.755 15.325,9.425 14.695,9.425 L14.125,9.425 L13.27,12.62 L14.305,12.62 C14.635,12.62 14.86,12.425 14.965,12.02 L15.385,10.4 Z M14.155,15.05 C14.335,14.375 14.215,14.045 13.78,14.045 L12.88,14.045 L11.875,17.81 L12.61,17.81 C13.135,17.81 13.48,17.54 13.63,16.985 L14.155,15.05 Z" id="B"></path>
                    </g>
                </g>
            </g>
        </g>
    </g>
</svg>