<?xml version="1.0" encoding="UTF-8"?>
<svg width="165px" height="75px" viewBox="0 0 165 75" version="1.1" xmlns="http://www.w3.org/2000/svg" xmlns:xlink="http://www.w3.org/1999/xlink">
    <!-- Generator: Sketch 54.1 (76490) - https://sketchapp.com -->
    <title>bolt_logo</title>
    <desc>Created with Sketch.</desc>
    <defs>
        <polygon id="path-1" points="0.988004379 0.435 5.24025049 0.435 5.24025049 4.68642222 0.988004379 4.68642222"></polygon>
        <polygon id="path-3" points="0.324124876 0.747810171 4.57562512 0.747810171 4.57562512 5 0.324124876 5"></polygon>
    </defs>
    <g id="Page-1" stroke="none" stroke-width="1" fill="none" fill-rule="evenodd">
        <g id="04_1_signIn" transform="translate(-318.000000, -379.000000)">
            <g id="Group" transform="translate(276.000000, 378.000000)">
                <g id="bolt_logo" transform="translate(42.000000, 0.000000)">
                    <path d="M77.1473,15.049 L75.4563,15.049 L72.9183,23.489 L75.9903,23.489 C76.9683,23.489 77.6363,22.974 77.9483,21.904 L79.1943,17.625 C79.6833,15.921 79.0163,15.049 77.1473,15.049 M74.4323,27.254 L71.7623,27.254 L68.7803,37.2 L70.9603,37.2 C72.5183,37.2 73.5433,36.487 73.9873,35.021 L75.5443,29.909 C76.0793,28.126 75.7223,27.254 74.4323,27.254 M83.6003,17.862 L82.3543,21.984 C81.7753,23.925 80.2623,25.074 77.8143,25.471 C79.9513,26.184 80.6633,27.65 79.9513,29.909 L77.8143,37.121 C77.0133,39.696 74.8333,40.965 71.1393,40.965 L63.2173,40.965 L67.3113,27.254 L64.5973,27.254 L65.7093,23.489 L68.4683,23.489 L72.1183,11.284 L78.0373,11.284 C83.1103,11.284 84.9353,13.464 83.6003,17.862" id="Fill-1" fill="#FEFEFE"></path>
                    <path d="M107.6199,17.0304 C108.0649,15.5644 107.3969,14.8114 105.6619,14.8114 C104.3709,14.8114 103.5249,15.3654 103.2139,16.4754 L97.6059,35.2184 C97.1619,36.6854 97.8289,37.4384 99.5199,37.4384 C100.8109,37.4384 101.6559,36.8834 102.0129,35.7734 L107.6199,17.0304 Z M111.9369,17.3864 L106.0169,37.2794 C105.2169,39.9744 102.9029,41.3614 99.2979,41.3614 C94.0469,41.3614 91.9549,39.1414 93.2449,34.8624 L99.2089,14.9694 C100.0099,12.2754 102.2789,10.8884 105.8849,10.8884 C111.1359,10.8884 113.2269,13.1074 111.9369,17.3864 L111.9369,17.3864 Z" id="Fill-3" fill="#FEFEFE"></path>
                    <path d="M126.8778,40.9645 C121.8938,40.9645 120.0238,38.7855 121.3588,34.3865 L128.3018,11.2845 L132.7518,11.2845 L125.7658,34.6245 C125.2748,36.3285 125.9428,37.2005 127.7678,37.2005 L135.6748,37.2005 L134.5628,40.9645 L126.8778,40.9645 Z" id="Fill-5" fill="#FEFEFE"></path>
                    <polygon id="Fill-7" fill="#FEFEFE" points="162.9969 15.049 157.1959 15.049 149.4079 40.965 144.9569 40.965 152.7459 15.049 146.9449 15.049 148.0579 11.284 164.1089 11.284"></polygon>
                    <path d="M42.9588,38.5778 C42.6568,39.0988 42.8468,39.8268 43.3778,40.1318 C43.6428,40.2828 43.9498,40.3238 44.2448,40.2448 C44.5388,40.1668 44.7848,39.9778 44.9378,39.7158 C45.1418,39.3638 45.1408,38.9278 44.9378,38.5768 C44.8378,38.4048 44.6928,38.2608 44.5198,38.1608 C43.9748,37.8478 43.2738,38.0348 42.9588,38.5778" id="Fill-9" fill="#D1E8F0"></path>
                    <path d="M40.9158,30.0753 C40.3868,29.7703 39.7698,29.6903 39.1818,29.8473 C38.5918,30.0053 38.0998,30.3813 37.7938,30.9073 C37.1878,31.9503 37.5688,33.4043 38.6298,34.0133 C39.1598,34.3173 39.7738,34.3973 40.3628,34.2403 C40.9518,34.0823 41.4448,33.7073 41.7498,33.1813 C42.1568,32.4793 42.1558,31.6073 41.7488,30.9053 C41.5498,30.5613 41.2618,30.2763 40.9158,30.0753" id="Fill-11" fill="#066EB7"></path>
                    <path d="M37.3182,21.7467 C35.6842,20.8087 33.5832,21.3747 32.6342,23.0037 C31.7252,24.5717 32.2952,26.7517 33.8822,27.6637 C34.6742,28.1167 35.5972,28.2367 36.4832,27.9987 C37.3662,27.7627 38.1062,27.1967 38.5642,26.4077 C39.1772,25.3517 39.1782,24.0437 38.5692,22.9897 C38.2712,22.4757 37.8392,22.0477 37.3182,21.7467" id="Fill-13" fill="#066EB7"></path>
                    <g id="Group-17" transform="translate(20.000000, 0.565200)">
                        <mask id="mask-2" fill="white">
                            <use xlink:href="#path-1"></use>
                        </mask>
                        <g id="Clip-16"></g>
                        <path d="M3.66,4.6132 C4.21,4.4662 4.67,4.1152 4.955,3.6232 C5.336,2.9672 5.335,2.1522 4.954,1.4952 C4.768,1.1752 4.498,0.9072 4.175,0.7202 C3.681,0.4362 3.104,0.3612 2.555,0.5082 C2.003,0.6552 1.543,1.0072 1.258,1.4982 C0.691,2.4752 1.048,3.8322 2.039,4.4002 C2.533,4.6842 3.108,4.7602 3.66,4.6132" id="Fill-15" fill="#066EB7" mask="url(#mask-2)"></path>
                    </g>
                    <path d="M32.8641,15.0085 C31.5001,14.2255 29.7491,14.6925 28.9621,16.0505 C28.2061,17.3545 28.6821,19.1705 30.0081,19.9325 C30.6691,20.3135 31.4381,20.4145 32.1751,20.2175 C32.9111,20.0215 33.5271,19.5515 33.9071,18.8935 C34.4171,18.0155 34.4171,16.9255 33.9081,16.0465 C33.6591,15.6175 33.2981,15.2585 32.8641,15.0085" id="Fill-18" fill="#D1E8F0"></path>
                    <path d="M26.2186,12.1852 C26.7106,12.4692 27.2836,12.5442 27.8326,12.3972 C28.3806,12.2502 28.8396,11.8992 29.1226,11.4082 C29.5026,10.7512 29.5026,9.9372 29.1226,9.2802 C28.9376,8.9602 28.6696,8.6922 28.3466,8.5052 C27.8536,8.2202 27.2806,8.1452 26.7316,8.2922 C26.1826,8.4392 25.7236,8.7912 25.4396,9.2832 C25.0606,9.9382 25.0616,10.7532 25.4416,11.4102 C25.6256,11.7302 25.8946,11.9982 26.2186,12.1852" id="Fill-20" fill="#066EB7"></path>
                    <path d="M28.9842,21.7477 C28.1932,21.2947 27.2702,21.1757 26.3852,21.4137 C25.5002,21.6507 24.7602,22.2167 24.3012,23.0047 C23.3902,24.5727 23.9592,26.7497 25.5472,27.6627 C26.3382,28.1187 27.2622,28.2357 28.1452,27.9987 C29.0312,27.7627 29.7702,27.1957 30.2302,26.4057 C30.8422,25.3517 30.8442,24.0437 30.2342,22.9897 C29.9372,22.4767 29.5052,22.0477 28.9842,21.7477" id="Fill-22" fill="#066EB7"></path>
                    <path d="M36.6766,37.3068 C36.1826,37.0228 35.6076,36.9478 35.0566,37.0938 C34.5046,37.2418 34.0446,37.5928 33.7596,38.0848 C33.1956,39.0578 33.5506,40.4168 34.5416,40.9878 C35.0356,41.2708 35.6116,41.3468 36.1606,41.1998 C36.7126,41.0528 37.1726,40.7008 37.4576,40.2098 C37.8386,39.5528 37.8386,38.7368 37.4566,38.0798 C37.2716,37.7608 37.0006,37.4938 36.6766,37.3068" id="Fill-24" fill="#066EB7"></path>
                    <path d="M17.8699,12.1857 C18.3639,12.4697 18.9399,12.5437 19.4919,12.3977 C20.0419,12.2507 20.5029,11.8997 20.7869,11.4087 C21.1669,10.7517 21.1669,9.9367 20.7859,9.2797 C20.5999,8.9587 20.3299,8.6917 20.0059,8.5047 C19.5119,8.2217 18.9369,8.1447 18.3859,8.2927 C17.8359,8.4387 17.3739,8.7907 17.0899,9.2827 C16.5229,10.2587 16.8799,11.6167 17.8699,12.1857" id="Fill-26" fill="#066EB7"></path>
                    <path d="M15.0701,4.2243 C15.3651,4.1453 15.6111,3.9573 15.7631,3.6953 C15.9661,3.3443 15.9661,2.9083 15.7621,2.5563 C15.6641,2.3853 15.5191,2.2423 15.3451,2.1413 C15.0811,1.9903 14.7731,1.9493 14.4791,2.0273 C14.1841,2.1063 13.9371,2.2943 13.7851,2.5573 C13.4821,3.0793 13.6731,3.8063 14.2041,4.1113 C14.4671,4.2623 14.7751,4.3033 15.0701,4.2243" id="Fill-28" fill="#D1E8F0"></path>
                    <path d="M21.6737,19.9342 C22.3347,20.3132 23.1057,20.4132 23.8407,20.2182 C24.5777,20.0202 25.1937,19.5522 25.5727,18.8942 C26.0827,18.0172 26.0817,16.9272 25.5717,16.0482 C25.3237,15.6202 24.9637,15.2602 24.5277,15.0112 C23.8687,14.6312 23.1007,14.5302 22.3637,14.7262 C21.6247,14.9232 21.0107,15.3932 20.6287,16.0512 C19.8707,17.3572 20.3497,19.1732 21.6737,19.9342" id="Fill-30" fill="#066EB7"></path>
                    <path d="M25.4559,40.1847 C25.7459,40.6807 26.2109,41.0387 26.7619,41.1917 C27.3109,41.3467 27.8829,41.2777 28.3719,41.0007 C29.0199,40.6307 29.4179,39.9297 29.4069,39.1717 C29.4019,38.8017 29.2979,38.4337 29.1049,38.1087 C28.8149,37.6117 28.3519,37.2557 27.8019,37.1007 C27.2519,36.9477 26.6809,37.0147 26.1919,37.2927 C25.5429,37.6637 25.1439,38.3637 25.1559,39.1217 C25.1609,39.4927 25.2659,39.8597 25.4559,40.1847" id="Fill-32" fill="#066EB7"></path>
                    <path d="M24.5291,29.5807 C23.1671,28.7967 21.4161,29.2647 20.6281,30.6227 C19.8731,31.9267 20.3461,33.7457 21.6741,34.5077 C23.0371,35.2907 24.7871,34.8247 25.5741,33.4667 C26.0821,32.5897 26.0831,31.4977 25.5731,30.6197 C25.3241,30.1897 24.9651,29.8307 24.5291,29.5807" id="Fill-34" fill="#D1E8F0"></path>
                    <path d="M20.6502,21.7492 C19.8602,21.2942 18.9352,21.1752 18.0502,21.4142 C17.1672,21.6502 16.4262,22.2152 15.9652,23.0072 C15.0562,24.5742 15.6252,26.7522 17.2122,27.6622 C18.0042,28.1172 18.9282,28.2362 19.8122,27.9992 C20.6982,27.7622 21.4362,27.1982 21.8952,26.4072 C22.5072,25.3532 22.5102,24.0442 21.9012,22.9922 C21.6032,22.4782 21.1712,22.0472 20.6502,21.7492" id="Fill-36" fill="#066EB7"></path>
                    <path d="M11.1776,9.3605 C10.9136,9.2085 10.6056,9.1685 10.3106,9.2465 C10.0166,9.3255 9.7706,9.5135 9.6166,9.7765 C9.3146,10.2985 9.5046,11.0255 10.0346,11.3295 C10.2996,11.4815 10.6076,11.5215 10.9026,11.4435 C11.1966,11.3645 11.4426,11.1765 11.5956,10.9135 C11.7986,10.5625 11.7986,10.1255 11.5946,9.7745 C11.4956,9.6035 11.3516,9.4605 11.1776,9.3605" id="Fill-38" fill="#D1E8F0"></path>
                    <path d="M16.201,15.0119 C15.543,14.6309 14.775,14.5309 14.041,14.7279 C13.308,14.9239 12.694,15.3939 12.313,16.0529 C11.807,16.9289 11.807,18.0189 12.315,18.8969 C12.562,19.3249 12.923,19.6839 13.356,19.9329 C14.013,20.3129 14.781,20.4139 15.514,20.2169 C16.247,20.0209 16.86,19.5509 17.241,18.8929 C17.747,18.0169 17.747,16.9259 17.239,16.0469 C16.992,15.6189 16.633,15.2609 16.201,15.0119" id="Fill-40" fill="#066EB7"></path>
                    <g id="Group-44" transform="translate(29.000000, 43.565200)">
                        <mask id="mask-4" fill="white">
                            <use xlink:href="#path-3"></use>
                        </mask>
                        <g id="Clip-43"></g>
                        <path d="M3.5135,1.0326 C2.4985,0.4456 1.1945,0.7956 0.6075,1.8106 C0.2295,2.4656 0.2295,3.2816 0.6085,3.9386 C0.7935,4.2596 1.0635,4.5276 1.3865,4.7136 C1.8785,4.9986 2.4515,5.0736 3.0005,4.9276 C3.5485,4.7806 4.0075,4.4286 4.2915,3.9366 C4.6705,3.2816 4.6705,2.4646 4.2905,1.8076 C4.1065,1.4886 3.8365,1.2196 3.5135,1.0326" id="Fill-42" fill="#066EB7" mask="url(#mask-4)"></path>
                    </g>
                    <path d="M38.9627,45.9689 C38.7127,46.4009 38.8697,47.0019 39.3097,47.2549 C39.5277,47.3809 39.7827,47.4139 40.0267,47.3479 C40.2707,47.2829 40.4747,47.1279 40.6007,46.9099 C40.7697,46.6189 40.7697,46.2579 40.6007,45.9669 C40.5177,45.8249 40.3987,45.7059 40.2547,45.6229 C39.8037,45.3639 39.2237,45.5189 38.9627,45.9689" id="Fill-45" fill="#D1E8F0"></path>
                    <path d="M40.3514,2.1403 C39.8064,1.8273 39.1064,2.0143 38.7914,2.5573 C38.4894,3.0783 38.6794,3.8063 39.2084,4.1103 C39.4734,4.2623 39.7824,4.3033 40.0774,4.2233 C40.3714,4.1453 40.6174,3.9573 40.7704,3.6943 C40.9734,3.3433 40.9734,2.9073 40.7694,2.5553 C40.6694,2.3843 40.5254,2.2403 40.3514,2.1403" id="Fill-47" fill="#D1E8F0"></path>
                    <path d="M42.9588,9.776 C42.6568,10.298 42.8478,11.025 43.3778,11.329 C43.6428,11.482 43.9498,11.522 44.2448,11.443 C44.5388,11.365 44.7848,11.177 44.9378,10.913 C45.1418,10.562 45.1418,10.126 44.9378,9.775 C44.8378,9.603 44.6928,9.46 44.5198,9.359 C43.9748,9.046 43.2738,9.233 42.9588,9.776" id="Fill-49" fill="#D1E8F0"></path>
                    <path d="M47.2616,18.9484 C47.6566,19.1774 48.1166,19.2374 48.5566,19.1194 C48.9966,19.0024 49.3656,18.7194 49.5936,18.3254 C49.8976,17.7984 49.8966,17.1434 49.5916,16.6164 C49.4436,16.3604 49.2286,16.1444 48.9696,15.9954 C48.5736,15.7674 48.1136,15.7074 47.6726,15.8244 C47.2326,15.9424 46.8646,16.2244 46.6356,16.6194 C46.3326,17.1454 46.3326,17.8004 46.6366,18.3264 C46.7846,18.5844 47.0016,18.7994 47.2616,18.9484" id="Fill-51" fill="#D1E8F0"></path>
                    <path d="M51.1453,26.674 C51.6713,26.98 52.2853,27.059 52.8723,26.903 C53.4583,26.745 53.9493,26.369 54.2523,25.843 C54.6593,25.141 54.6593,24.268 54.2523,23.566 C54.0543,23.222 53.7663,22.936 53.4183,22.735 C52.3343,22.108 50.9383,22.483 50.3103,23.569 C49.9063,24.269 49.9063,25.142 50.3123,25.845 C50.5103,26.189 50.7983,26.475 51.1453,26.674" id="Fill-53" fill="#D1E8F0"></path>
                    <path d="M31.1551,2.0275 C30.8611,2.1065 30.6161,2.2945 30.4641,2.5575 C30.2611,2.9085 30.2611,3.3445 30.4651,3.6955 C30.5631,3.8675 30.7081,4.0105 30.8811,4.1105 C31.1441,4.2625 31.4501,4.3025 31.7441,4.2245 C32.0381,4.1455 32.2831,3.9575 32.4341,3.6945 C32.6371,3.3435 32.6371,2.9075 32.4341,2.5565 C32.3361,2.3855 32.1921,2.2415 32.0181,2.1415 C31.7551,1.9895 31.4481,1.9485 31.1551,2.0275" id="Fill-55" fill="#D1E8F0"></path>
                    <path d="M45.369,22.2404 C44.007,21.4594 42.257,21.9284 41.467,23.2864 C40.709,24.5924 41.18,26.4074 42.506,27.1694 C43.166,27.5484 43.934,27.6484 44.672,27.4494 C45.408,27.2524 46.026,26.7814 46.409,26.1224 C46.918,25.2454 46.92,24.1534 46.411,23.2754 C46.164,22.8474 45.803,22.4894 45.369,22.2404" id="Fill-57" fill="#066EB7"></path>
                    <path d="M36.7508,8.3752 C36.2238,8.0722 35.6068,7.9912 35.0178,8.1482 C34.4278,8.3062 33.9358,8.6822 33.6308,9.2082 C33.0248,10.2512 33.4068,11.7032 34.4668,12.3132 C34.9948,12.6172 35.6108,12.6982 36.1998,12.5422 C36.7888,12.3842 37.2818,12.0082 37.5878,11.4812 C37.9938,10.7802 37.9938,9.9072 37.5858,9.2042 C37.3878,8.8612 37.0988,8.5752 36.7508,8.3752" id="Fill-59" fill="#D1E8F0"></path>
                    <path d="M41.1981,15.0114 C40.5371,14.6314 39.7671,14.5304 39.0301,14.7274 C38.2931,14.9234 37.6771,15.3934 37.2971,16.0504 C36.5401,17.3574 37.0171,19.1734 38.3421,19.9334 C39.0031,20.3144 39.7711,20.4134 40.5071,20.2174 C41.2451,20.0214 41.8601,19.5504 42.2441,18.8924 C42.7511,18.0164 42.7511,16.9264 42.2421,16.0484 C41.9931,15.6184 41.6321,15.2614 41.1981,15.0114" id="Fill-61" fill="#D1E8F0"></path>
                    <path d="M48.9686,30.5656 C48.1536,30.0966 47.1076,30.3766 46.6356,31.1906 C46.3316,31.7176 46.3326,32.3716 46.6376,32.8996 C46.7856,33.1566 47.0026,33.3716 47.2616,33.5216 C47.6566,33.7486 48.1156,33.8096 48.5576,33.6916 C48.9966,33.5736 49.3646,33.2916 49.5926,32.8976 C49.8976,32.3696 49.8966,31.7156 49.5916,31.1886 C49.4436,30.9316 49.2286,30.7156 48.9686,30.5656" id="Fill-63" fill="#D1E8F0"></path>
                    <path d="M6.8807,19.1193 C7.3217,19.0023 7.6927,18.7193 7.9197,18.3253 C8.2257,17.7983 8.2257,17.1443 7.9197,16.6173 C7.7707,16.3593 7.5547,16.1453 7.2937,15.9953 C6.8977,15.7673 6.4347,15.7073 5.9927,15.8253 C5.5517,15.9423 5.1827,16.2243 4.9527,16.6193 C4.4987,17.4033 4.7847,18.4923 5.5797,18.9493 C5.9767,19.1773 6.4377,19.2373 6.8807,19.1193" id="Fill-65" fill="#D1E8F0"></path>
                    <path d="M13.3553,34.5055 C14.0133,34.8845 14.7803,34.9865 15.5143,34.7895 C16.2483,34.5945 16.8613,34.1235 17.2403,33.4665 C17.7493,32.5895 17.7473,31.4995 17.2393,30.6205 C16.9923,30.1915 16.6323,29.8325 16.2003,29.5845 C15.5423,29.2025 14.7753,29.1025 14.0423,29.2975 C13.3073,29.4955 12.6953,29.9645 12.3133,30.6245 C11.8073,31.5005 11.8063,32.5915 12.3143,33.4695 C12.5623,33.8985 12.9223,34.2555 13.3553,34.5055" id="Fill-67" fill="#D1E8F0"></path>
                    <path d="M9.1678,27.1701 C9.8278,27.5481 10.5968,27.6481 11.3348,27.4501 C12.0698,27.2531 12.6878,26.7821 13.0678,26.1241 C13.5798,25.2451 13.5808,24.1531 13.0738,23.2761 C12.8258,22.8491 12.4658,22.4911 12.0318,22.2421 C11.3718,21.8641 10.6038,21.7641 9.8648,21.9621 C9.1288,22.1591 8.5118,22.6311 8.1288,23.2901 C7.3688,24.5961 7.8438,26.4121 9.1678,27.1701" id="Fill-69" fill="#066EB7"></path>
                    <path d="M23.6815,45.4547 C23.4165,45.3027 23.1085,45.2627 22.8145,45.3407 C22.5195,45.4197 22.2735,45.6077 22.1205,45.8707 C21.8185,46.3927 22.0085,47.1197 22.5385,47.4237 C22.8035,47.5757 23.1115,47.6157 23.4065,47.5377 C23.7005,47.4587 23.9475,47.2697 24.0995,47.0077 C24.3025,46.6567 24.3025,46.2197 24.0985,45.8687 C23.9985,45.6977 23.8555,45.5547 23.6815,45.4547" id="Fill-71" fill="#D1E8F0"></path>
                    <path d="M20.0799,37.1759 C18.9889,36.5499 17.5889,36.9229 16.9599,38.0089 C16.3539,39.0539 16.7349,40.5079 17.7959,41.1169 C18.8869,41.7439 20.2859,41.3709 20.9159,40.2849 C21.3229,39.5829 21.3229,38.7099 20.9149,38.0059 C20.7169,37.6639 20.4279,37.3759 20.0799,37.1759" id="Fill-73" fill="#D1E8F0"></path>
                    <path d="M7.2938,30.567 C6.8978,30.339 6.4368,30.279 5.9938,30.397 C5.5518,30.515 5.1818,30.797 4.9528,31.192 C4.4988,31.975 4.7858,33.064 5.5798,33.521 C5.9768,33.749 6.4388,33.809 6.8808,33.692 C7.3228,33.573 7.6908,33.292 7.9208,32.897 C8.2258,32.371 8.2258,31.716 7.9198,31.189 C7.7708,30.931 7.5538,30.717 7.2938,30.567" id="Fill-75" fill="#D1E8F0"></path>
                    <path d="M15.2479,45.6232 C14.7959,45.3642 14.2169,45.5182 13.9559,45.9682 C13.7049,46.4002 13.8639,47.0022 14.3029,47.2542 C14.5209,47.3802 14.7759,47.4142 15.0189,47.3492 C15.2639,47.2832 15.4679,47.1272 15.5939,46.9102 C15.7629,46.6192 15.7629,46.2582 15.5939,45.9672 C15.5119,45.8242 15.3919,45.7062 15.2479,45.6232" id="Fill-77" fill="#D1E8F0"></path>
                    <path d="M11.1776,38.1618 C10.9136,38.0108 10.6066,37.9698 10.3116,38.0488 C10.0166,38.1278 9.7706,38.3158 9.6166,38.5788 C9.3146,39.1008 9.5056,39.8268 10.0356,40.1318 C10.2996,40.2828 10.6076,40.3238 10.9026,40.2448 C11.1976,40.1658 11.4436,39.9778 11.5956,39.7148 C11.7986,39.3648 11.7996,38.9288 11.5956,38.5768 C11.4956,38.4058 11.3526,38.2618 11.1776,38.1618" id="Fill-79" fill="#D1E8F0"></path>
                    <path d="M3.41,22.7375 C2.881,22.4325 2.265,22.3525 1.676,22.5095 C1.087,22.6675 0.594,23.0435 0.289,23.5695 C-0.317,24.6135 0.063,26.0675 1.125,26.6755 C1.651,26.9795 2.267,27.0595 2.857,26.9025 C3.447,26.7445 3.939,26.3685 4.245,25.8415 C4.652,25.1405 4.651,24.2675 4.244,23.5645 C4.045,23.2225 3.756,22.9375 3.41,22.7375" id="Fill-81" fill="#D1E8F0"></path>
                    <path d="M28.828,33.4362 C29.636,34.8052 31.391,35.2962 32.741,34.5322 C34.039,33.7962 34.511,31.9962 33.725,30.6622 C32.917,29.2932 31.161,28.8022 29.81,29.5672 C28.938,30.0602 28.405,30.9982 28.422,32.0132 C28.43,32.5072 28.571,33.0002 28.828,33.4362" id="Fill-83" fill="#066EB7"></path>
                    <text id="Booster-of-Ledge-Tec-Copy" font-family="Avenir-Heavy, Avenir" font-size="10" font-weight="600" line-spacing="13" letter-spacing="0.8333334" fill="#FFFFFF">
                        <tspan x="3" y="73">Booster of Ledge Technolog</tspan>
                        <tspan x="156.846668" y="73" letter-spacing="0.7575758">y</tspan>
                    </text>
                </g>
            </g>
        </g>
    </g>
</svg>