<?xml version="1.0" encoding="UTF-8"?>
<svg width="35px" height="42px" viewBox="0 0 35 42" version="1.1" xmlns="http://www.w3.org/2000/svg" xmlns:xlink="http://www.w3.org/1999/xlink">
    <!-- Generator: Sketch 55.1 (78136) - https://sketchapp.com -->
    <title>currency</title>
    <desc>Created with Sketch.</desc>
    <g id="Page-1" stroke="none" stroke-width="1" fill="none" fill-rule="evenodd">
        <g id="01-1-currency_new_token" transform="translate(-806.000000, -338.000000)" fill="#FFFFFF" fill-rule="nonzero">
            <g id="content" transform="translate(590.000000, 199.000000)">
                <g id="btn01" transform="translate(130.000000, 92.000000)">
                    <g id="currency" transform="translate(86.000000, 47.000000)">
                        <path d="M23.6252522,19.076685 C23.3308451,19.076685 23.0387348,19.0879033 22.7499057,19.1096896 L22.7499057,4.1188334 C22.7499057,3.21356313 22.1097403,1.93621833 19.0605877,0.991846495 C16.9952258,0.352320524 14.2657457,0 11.3749938,0 C8.48424196,0 5.7548439,0.352320524 3.68940003,0.991846495 C0.640083343,1.93621833 0,3.21356313 0,4.1188334 L0,30.3493159 C0,31.2545049 0.640083343,32.5318497 3.68940003,33.4761402 C5.7548439,34.1157475 8.48432399,34.468068 11.3749938,34.468068 C11.9259922,34.468068 12.4769905,34.4543296 13.0209342,34.4283161 C14.6740111,38.6335631 18.8038325,41.6216216 23.6251702,41.6216216 C29.8972979,41.6216216 35,36.5649198 35,30.3493159 C35,24.1335494 29.8973799,19.076685 23.6252522,19.076685 Z M4.21135957,2.64711888 C6.11241448,2.05840055 8.6564238,1.73420714 11.3749938,1.73420714 C14.0933998,1.73420714 16.6375732,2.05840055 18.5386281,2.64711888 C20.5477171,3.2693296 20.9999508,3.9347878 20.9999508,4.1188334 C20.9999508,4.3029603 20.5477171,4.9683372 18.5386281,5.59062922 C16.6375732,6.17926626 14.0935639,6.50345967 11.3749938,6.50345967 C8.6564238,6.50345967 6.11233245,6.17926626 4.21135957,5.59054793 C2.20210654,4.9683372 1.74995488,4.3029603 1.74995488,4.1188334 C1.74995488,3.93486909 2.20210654,3.2694109 4.21135957,2.64711888 Z M1.74979082,6.44289696 C2.25124276,6.72506229 2.88599413,6.99706609 3.68940003,7.24582031 C5.7548439,7.88542758 8.48432399,8.23766681 11.3749938,8.23766681 C14.2656637,8.23766681 16.9952258,7.88534628 19.0605877,7.2459016 C19.8639936,6.99714738 20.4986629,6.72514358 20.9999508,6.44289696 L20.9999508,8.49081081 C20.9999508,8.67477513 20.5477171,9.34023332 18.5386281,9.96252534 C16.6374912,10.5511624 14.0935639,10.8753558 11.3749938,10.8753558 C10.113366,10.8753558 8.8815973,10.8049567 7.71389431,10.6662722 C7.23434449,10.6087986 6.79843486,10.9485188 6.74101357,11.423997 C6.68351025,11.8994753 7.02582318,12.3312183 7.50561908,12.3881229 C8.74214559,12.5350179 10.0439683,12.6095629 11.3750759,12.6095629 C14.2658278,12.6095629 16.9953079,12.2572424 19.0605877,11.6177164 C19.8639936,11.3689622 20.4986629,11.0969584 20.9999508,10.8148744 L20.9999508,17.2341153 C20.9999508,17.4182422 20.5477171,18.0836191 18.5386281,18.7059111 C16.6375732,19.2946294 14.0935639,19.6187416 11.3749938,19.6187416 C8.6564238,19.6187416 6.11225042,19.2946294 4.21135957,18.7059111 C2.20210654,18.0837004 1.74979082,17.4182422 1.74979082,17.2341153 L1.74979082,15.1866079 C2.25116073,15.4686919 2.8859121,15.740777 3.689318,15.9895312 C5.75476187,16.6291385 8.48424196,16.9813777 11.3749118,16.9813777 C13.0970584,16.9813777 14.7462799,16.8588704 16.2768034,16.6171886 C16.7541384,16.541912 17.079389,16.097406 17.0033468,15.6245291 C16.9273046,15.1514897 16.4776139,14.8294098 16.0015914,14.9046052 C14.582055,15.1286465 12.9822158,15.2470893 11.3749118,15.2470893 C8.65650583,15.2470893 6.11225042,14.9228959 4.21127754,14.3341776 C2.20202451,13.7119668 1.74979082,13.0465899 1.74979082,12.8625443 L1.74979082,6.44289696 L1.74979082,6.44289696 Z M11.3749938,32.7338609 C8.65658786,32.7338609 6.11233245,32.4096674 4.21135957,31.8209491 C2.20210654,31.1987384 1.74987285,30.5333615 1.74987285,30.3493159 L1.74987285,28.3015646 C2.25116073,28.5836486 2.8859121,28.8557337 3.689318,29.104488 C5.75467984,29.7440952 8.48424196,30.0964158 11.3749118,30.0964158 C11.6676784,30.0964158 11.9609371,30.0923511 12.2531295,30.0849535 C12.2510787,30.1730743 12.2499303,30.2610325 12.2499303,30.3493159 C12.2499303,30.4480046 12.2513248,30.5462057 12.2538677,30.6443254 C12.254688,30.67481 12.2562466,30.7054571 12.257395,30.7361043 C12.2596919,30.8035769 12.2619067,30.8711307 12.265434,30.9381968 C12.2673207,30.9751848 12.2702738,31.0121727 12.2724886,31.0489981 C12.276262,31.1093982 12.2798714,31.1700422 12.2844651,31.2301985 C12.2876643,31.2710072 12.2918478,31.3117346 12.2954572,31.3523807 C12.300543,31.4084723 12.3052188,31.4646453 12.311125,31.520493 C12.3158007,31.5645534 12.3212967,31.6085325 12.3264647,31.652349 C12.3325349,31.7042948 12.3383591,31.7563218 12.3450856,31.8081049 C12.3513199,31.8560674 12.3584565,31.9039485 12.3653471,31.951667 C12.3720736,31.9985726 12.378636,32.0456408 12.3860187,32.0923839 C12.3943038,32.1447361 12.4033272,32.1969257 12.4123505,32.2491966 C12.4194051,32.2906556 12.4264597,32.3321959 12.4339245,32.3735737 C12.4444244,32.4307221 12.4558266,32.487708 12.4671468,32.5447751 C12.4741194,32.5799747 12.481092,32.6152555 12.4883927,32.6502924 C12.4927403,32.6715097 12.4966778,32.6930522 12.5013535,32.714432 C12.127869,32.7273575 11.7514314,32.7338609 11.3749938,32.7338609 Z M13.2570997,25.7128136 C13.2567716,25.7137078 13.2562794,25.7143581 13.2559513,25.7152523 C13.2251899,25.7829688 13.1952488,25.8509291 13.1657178,25.9192958 C13.1573507,25.9387247 13.1486555,25.9579909 13.1404525,25.9775011 C13.1268354,26.0095302 13.1138746,26.0417219 13.1005857,26.0739136 C12.8005184,26.7966016 12.5736223,27.55644 12.4302331,28.3447308 C12.0797172,28.3559491 11.7269864,28.3622086 11.3749118,28.3622086 C8.65634177,28.3622086 6.11225042,28.0380152 4.21127754,27.4492969 C2.20202451,26.8270861 1.74979082,26.161628 1.74979082,25.9775823 L1.74979082,19.5580976 L1.74979082,19.5580976 C2.25116073,19.8401816 2.8859121,20.1122667 3.689318,20.3610209 C5.75467984,21.0005469 8.48415993,21.3528674 11.3749118,21.3528674 C13.67849,21.3528674 15.8784637,21.1285821 17.7226716,20.7140731 C16.6955687,21.3327069 15.7646055,22.1128685 14.9722737,23.0318771 C14.7434089,23.2974588 14.5283251,23.5727143 14.3265303,23.8563429 C13.3749774,23.945114 12.3819992,23.9903938 11.3749118,23.9903938 C10.113284,23.9903938 8.88151527,23.9199947 7.71381228,23.7813102 C7.23426246,23.724243 6.79835283,24.0634755 6.74093154,24.5390351 C6.68342822,25.0145133 7.02574114,25.4462563 7.50553705,25.5031609 C8.74206356,25.650056 10.0438863,25.7246009 11.3749938,25.7246009 C12.0163897,25.7246009 12.6514692,25.7050095 13.276705,25.6706229 C13.2702246,25.6847677 13.2635801,25.69875 13.2570997,25.7128136 Z M23.6252522,39.8874145 C19.3144718,39.8874145 15.6565715,37.0646231 14.4348104,33.186496 C14.4199629,33.1393465 14.4060998,33.0918718 14.3919906,33.0445598 C14.3683658,32.9652185 14.3458074,32.8854709 14.3241514,32.8053167 C14.309714,32.7515013 14.2956868,32.6975232 14.2821518,32.6435452 C14.2710777,32.598997 14.2595935,32.5546115 14.2490936,32.5096569 C14.2278477,32.4186096 14.2079963,32.3272371 14.1892934,32.2354582 C14.1816646,32.1979825 14.1746099,32.1603442 14.1673913,32.1227059 C14.1522156,32.0429582 14.1380244,31.9629666 14.1249815,31.8828938 C14.12088,31.8578558 14.1162863,31.8329804 14.1124309,31.8078611 C14.096517,31.7058393 14.0827359,31.6034111 14.0702673,31.5008203 C14.0666579,31.4709861 14.0632947,31.4411518 14.0599314,31.4113176 C14.0488573,31.3118159 14.0387676,31.2122329 14.0308106,31.112406 C14.0300724,31.1036265 14.029252,31.0950095 14.0285138,31.0862299 C14.0201467,30.9781926 14.0141584,30.86983 14.0094827,30.7612236 C14.0082523,30.7339907 14.0072679,30.7067578 14.0063656,30.6795249 C14.0025101,30.5696178 13.9999672,30.4596294 13.9999672,30.3493159 C13.9999672,30.2170534 14.0035765,30.0856039 14.0089085,29.9546421 C14.0098108,29.9332622 14.0103851,29.9116385 14.0113694,29.8902587 C14.0169475,29.772141 14.0253146,29.6545925 14.0351582,29.537613 C14.0382754,29.5007876 14.0414746,29.4639622 14.0450839,29.4272994 C14.0550916,29.3234079 14.066904,29.2200042 14.0801109,29.1171696 C14.0874116,29.0614844 14.0955326,29.0062057 14.1037357,28.9508457 C14.1112004,28.900038 14.1195675,28.8494742 14.1277706,28.7989105 C14.1481962,28.675834 14.1701803,28.5534079 14.1954457,28.4320386 C14.1956918,28.4305754 14.1961019,28.4291121 14.19643,28.4276489 C14.9178055,24.9464717 17.5591029,22.1513197 20.9710761,21.1799588 C20.9851033,21.1760568 20.9988844,21.1719922 21.0128296,21.1680902 C21.0917428,21.14606 21.1713123,21.1250053 21.2511279,21.1047635 C21.3421817,21.082083 21.4338097,21.0602154 21.5260939,21.0399736 C21.5612849,21.0321696 21.5967221,21.0244468 21.6322412,21.0169679 C21.752908,20.9919299 21.8744771,20.968599 21.9969485,20.9479508 C22.5263728,20.8582042 23.0703985,20.8107295 23.6254163,20.8107295 C28.9324562,20.8107295 33.2502092,25.0897086 33.2502092,30.3491533 C33.2502092,35.608598 28.9322921,39.8874145 23.6252522,39.8874145 Z" id="Shape"></path>
                        <path d="M25.5358108,25.5405405 C27.1533784,25.5405405 27.7351351,26.3209459 27.3094595,27.8959459 L26.9121622,29.3716216 C26.7277027,30.0668919 26.2452703,30.4783784 25.4648649,30.6202703 C26.1459459,30.8756757 26.372973,31.4006757 26.1459459,32.2094595 L25.4648649,34.7918919 C25.2094595,35.7141892 24.5141892,36.1682432 23.3364865,36.1682432 L20.8108108,36.1682432 L22.1162162,31.2587838 L21.2506757,31.2587838 L21.6054054,29.9108108 L22.4851351,29.9108108 L23.6486486,25.5405405 L25.5358108,25.5405405 Z M25.9047297,27.8108108 C26.0608108,27.2006757 25.847973,26.8885135 25.252027,26.8885135 L24.7128378,26.8885135 L23.9040541,29.9108108 L24.8831081,29.9108108 C25.1952703,29.9108108 25.4081081,29.7263514 25.5074324,29.3432432 L25.9047297,27.8108108 Z M24.7412162,32.2094595 C24.9114865,31.5709459 24.797973,31.2587838 24.3864865,31.2587838 L23.5351351,31.2587838 L22.5844595,34.8202703 L23.2797297,34.8202703 C23.7763514,34.8202703 24.1027027,34.5648649 24.2445946,34.0398649 L24.7412162,32.2094595 Z" id="B"></path>
                        <path d="M4.35876596,12.1663816 C4.47833433,12.2029709 4.60072373,12.2385531 4.72535549,12.2728765 C4.78539285,12.2894927 4.84550253,12.2972973 4.90459954,12.2972973 C5.2536842,12.2972973 5.57021849,12.0204442 5.65456012,11.6090667 C5.75315159,11.1282033 5.49708866,10.6454936 5.08254158,10.5311102 C4.97027896,10.5001436 4.86011403,10.46817 4.75240847,10.4352732 C4.34003142,10.3090571 3.91810625,10.5944701 3.80953268,11.0724802 C3.7007421,11.5505743 3.94667825,12.0403333 4.35876596,12.1663816 Z" id="Path"></path>
                        <path d="M18.71364,16.0810811 C18.7836348,16.0810811 18.854949,16.0692667 18.9254299,16.0446601 C19.0711135,15.993736 19.2179082,15.9389008 19.3617864,15.8817028 C19.7491883,15.7276267 19.9568118,15.2341105 19.8254326,14.7794596 C19.6941229,14.3248902 19.2735291,14.0813505 18.8860578,14.2354266 C18.7596088,14.2857804 18.6305906,14.3340158 18.5024057,14.3786661 C18.1103514,14.5157132 17.8872429,14.9996964 18.0039704,15.4597249 C18.0999355,15.8372155 18.3944276,16.0810811 18.71364,16.0810811 Z" id="Path"></path>
                        <path d="M5.08209406,23.7738488 C4.96968451,23.7428749 4.85922802,23.7108936 4.75137561,23.6780729 C4.33971362,23.5529179 3.91734594,23.8384829 3.8092042,24.3169426 C3.70113478,24.7951506 3.94758223,25.2846905 4.35975058,25.4101812 C4.47924902,25.4465274 4.60142388,25.4818663 4.72584114,25.5161979 C4.78573503,25.5326502 4.84570126,25.5405405 4.90458245,25.5405405 C5.25389115,25.5405405 5.57043181,25.2633696 5.65463047,24.8517264 C5.75307925,24.3705805 5.49672182,23.8879237 5.08209406,23.7738488 Z" id="Path"></path>
                    </g>
                </g>
            </g>
        </g>
    </g>
</svg>