<?xml version="1.0" encoding="UTF-8"?>
<svg width="20px" height="21px" viewBox="0 0 20 21" version="1.1" xmlns="http://www.w3.org/2000/svg" xmlns:xlink="http://www.w3.org/1999/xlink">
    <!-- Generator: Sketch 55.1 (78136) - https://sketchapp.com -->
    <title>Combined Shape</title>
    <desc>Created with Sketch.</desc>
    <g id="Page-1" stroke="none" stroke-width="1" fill="none" fill-rule="evenodd">
        <g id="03-1-currency_wallet_new" transform="translate(-32.000000, -141.000000)" stroke="#FFFFFF" stroke-width="1.5">
            <g id="leftbar">
                <g id="Group-3" transform="translate(0.000000, 132.000000)">
                    <path d="M45.01723,10.8916475 L48.0344599,12.633646 C49.8908664,13.7054428 51.0344599,15.6862049 51.0344599,17.8297985 L51.0344599,21.3137955 C51.0344599,23.4573891 49.8908664,25.4381512 48.0344599,26.509948 L45.01723,28.2519465 C43.1608235,29.3237433 40.8736364,29.3237433 39.01723,28.2519465 L36,26.509948 C34.1435935,25.4381512 33,23.4573891 33,21.3137955 L33,17.8297985 C33,15.6862049 34.1435935,13.7054428 36,12.633646 L39.01723,10.8916475 C40.8736364,9.81985074 43.1608235,9.81985074 45.01723,10.8916475 Z M39.7394611,14.592049 C39.6551868,14.592049 39.5810534,14.6582904 39.5572747,14.7547084 L37.9508173,21.2942035 C37.9147997,21.4391984 38.0060677,21.5849295 38.132654,21.5849295 L40.9259456,21.5849295 C41.0451885,21.5849295 41.1350578,21.7152041 41.1123282,21.8557831 L40.4171525,26.0908145 C40.3811349,26.3105151 40.6045842,26.452934 40.7374649,26.2957948 L46.0348577,20.0190571 C46.1554994,19.8762702 46.0708754,19.6304411 45.9012777,19.6304411 L42.5754144,19.6304411 C42.4295953,19.6304411 42.338677,19.4431252 42.4103626,19.2918741 L44.4833011,14.930984 C44.5549867,14.7797329 44.4640683,14.592049 44.3182493,14.592049 L39.7394611,14.592049 Z" id="Combined-Shape"></path>
                </g>
            </g>
        </g>
    </g>
</svg>