<?xml version="1.0" encoding="UTF-8"?>
<svg width="20px" height="18px" viewBox="0 0 20 18" version="1.1" xmlns="http://www.w3.org/2000/svg" xmlns:xlink="http://www.w3.org/1999/xlink">
    <!-- Generator: Sketch 55.1 (78136) - https://sketchapp.com -->
    <title>dashboard</title>
    <desc>Created with Sketch.</desc>
    <g id="Page-1" stroke="none" stroke-width="1" fill="none" fill-rule="evenodd">
        <g id="03-1-currency_wallet_new" transform="translate(-33.000000, -100.000000)" fill="#FFFFFF" fill-rule="nonzero">
            <g id="leftbar">
                <g id="Group-7" transform="translate(33.000000, 100.000000)">
                    <g id="dashboard" transform="translate(0.000000, -0.000000)">
                        <path d="M10.0001758,0 C10.0000977,0 9.99998047,0 9.99990235,0 C9.99986328,0 9.99986328,0 9.99982422,0 C9.99978516,0 9.9997461,0 9.99970704,0 C7.23916962,0 4.74011199,1.16726811 2.93080786,3.05441337 C2.93018287,3.05506555 2.92947976,3.05559544 2.92885477,3.05624761 C2.92819072,3.05694055 2.92768291,3.05767424 2.92701886,3.05836718 C1.1206053,4.94449342 0.00281245056,7.5487441 0.000429679947,10.4255625 C0.000429679947,10.4286603 0,10.4316766 0,10.4347745 C0,10.43775 0.000390618134,10.4406033 0.000429679947,10.443538 C0.00238277062,12.8973812 0.819243412,15.2222979 2.28613169,17.0754894 C2.44444922,17.2755028 2.68003102,17.3913043 2.9286204,17.3913043 L17.0708718,17.3913043 C17.3194612,17.3913043 17.555043,17.2755028 17.7133605,17.0754894 C19.1823581,15.2196484 20,12.8913894 20,10.4347745 C20,4.6719257 15.5228131,0 10.0001758,0 Z M16.6668945,15.6521617 L3.33259767,15.6521617 C2.42319959,14.3895132 1.85949856,12.8942426 1.70829028,11.3043254 L4.16660645,11.3043254 C4.62683273,11.3043254 4.99991211,10.9150186 4.99991211,10.4347745 C4.99991211,9.95453027 4.62683273,9.56522351 4.16660645,9.56522351 L1.70829028,9.56522351 C1.87469361,7.81637976 2.53761164,6.2201446 3.5477892,4.93189832 L4.10715437,5.51559352 C4.43257833,5.85517206 4.96022531,5.85517206 5.28564928,5.51559352 C5.61107324,5.17601498 5.61107324,4.62541758 5.28564928,4.28583904 L4.72624505,3.70210309 C5.96079366,2.64786478 7.49045427,1.95603108 9.1664795,1.78226763 L9.1664795,4.34787704 C9.1664795,4.82812123 9.53955887,5.21742799 9.99978516,5.21742799 C10.4600114,5.21742799 10.8330908,4.82812123 10.8330908,4.34787704 L10.8330908,1.78226763 C12.509077,1.95586804 14.0388157,2.64770174 15.2734815,3.70194004 L14.713921,4.28583904 C14.3884971,4.62541758 14.3884971,5.17601498 14.713921,5.51559352 C15.039345,5.85517206 15.566992,5.85517206 15.892416,5.51559352 L16.4520155,4.93165376 C17.4624274,6.21998155 18.1255017,7.816339 18.2919441,9.56522351 L15.8330029,9.56522351 C15.3727767,9.56522351 14.9996973,9.95453027 14.9996973,10.4347745 C14.9996973,10.9150186 15.3727767,11.3043254 15.8330029,11.3043254 L18.2919441,11.3043254 C18.1406577,12.8938758 17.5766442,14.3891871 16.6668945,15.6521617 Z" id="Shape"></path>
                        <polygon id="Path" points="10.000018 12.173913 12.173913 6.95652174 7.82608696 9.56567133"></polygon>
                    </g>
                </g>
            </g>
        </g>
    </g>
</svg>