<?xml version="1.0" encoding="UTF-8"?>
<svg width="15px" height="23px" viewBox="0 0 15 23" version="1.1" xmlns="http://www.w3.org/2000/svg" xmlns:xlink="http://www.w3.org/1999/xlink">
    <!-- Generator: Sketch 55.1 (78136) - https://sketchapp.com -->
    <title>phone</title>
    <desc>Created with Sketch.</desc>
    <g id="Page-1" stroke="none" stroke-width="1" fill="none" fill-rule="evenodd">
        <g id="03-1-currency_wallet_new" transform="translate(-35.000000, -187.000000)" fill="#FFFFFF" fill-rule="nonzero">
            <g id="leftbar">
                <g id="Group-5" transform="translate(35.000000, 188.000000)">
                    <g id="phone" transform="translate(7.159091, 10.500000) scale(-1, 1) translate(-7.159091, -10.500000) translate(-0.000000, 0.000000)">
                        <path d="M7.4375,18.15625 C7.4375,17.7937468 7.14356532,17.5 6.78125002,17.5 C6.41876459,17.5 6.125,17.7937468 6.125,18.15625 C6.125,18.5187533 6.41876459,18.8125 6.78125002,18.8125 C7.14356532,18.8125 7.4375,18.5187533 7.4375,18.15625 Z" id="Path"></path>
                        <path d="M11.5440588,0 L2.01844119,0 C0.905437998,0 0,0.920448293 0,2.05190278 L0,18.9480972 C0,20.0795517 0.905437998,21 2.01844119,21 L11.5440588,21 C12.657062,21 13.5625,20.0795517 13.5625,18.9480972 L13.5625,2.05190278 C13.5625,0.920448293 12.657062,0 11.5440588,0 L11.5440588,0 Z M1.21040277,3.70182036 L12.3520972,3.70182036 L12.3520972,15.6631622 L1.21040277,15.6631622 L1.21040277,3.70182036 Z M2.01844119,1.23046875 L11.5440588,1.23046875 C11.9896068,1.23046875 12.3520972,1.59896851 12.3520972,2.05190278 L12.3520972,2.47135161 L1.21040277,2.47135161 L1.21040277,2.05190278 C1.21040277,1.59896851 1.57289318,1.23046875 2.01844119,1.23046875 Z M11.5440588,19.7695313 L2.01844119,19.7695313 C1.57289318,19.7695313 1.21040277,19.4010315 1.21040277,18.9480972 L1.21040277,16.893631 L12.3520972,16.893631 L12.3520972,18.9480972 C12.3520972,19.4010315 11.9896068,19.7695313 11.5440588,19.7695313 Z" id="Shape" stroke="#FFFFFF" stroke-width="0.4"></path>
                    </g>
                </g>
            </g>
        </g>
    </g>
</svg>