<?xml version="1.0" encoding="UTF-8"?>
<svg width="20px" height="22px" viewBox="0 0 20 22" version="1.1" xmlns="http://www.w3.org/2000/svg" xmlns:xlink="http://www.w3.org/1999/xlink">
    <!-- Generator: Sketch 55.1 (78136) - https://sketchapp.com -->
    <title>computer</title>
    <desc>Created with Sketch.</desc>
    <g id="Page-1" stroke="none" stroke-width="1" fill="none" fill-rule="evenodd">
        <g id="03-1-currency_wallet_new" transform="translate(-32.000000, -228.000000)" fill="#FFFFFF" fill-rule="nonzero" stroke="#FFFFFF" stroke-width="0.4">
            <g id="leftbar">
                <g id="Group-6" transform="translate(33.000000, 228.000000)">
                    <g id="computer">
                        <path d="M14.2551967,5.55738281 C14.2305745,5.55738281 14.2059523,5.55761719 14.1812917,5.558125 C14.0168367,4.40371094 13.4867301,3.33988281 12.6541382,2.5134375 C11.6708982,1.53746094 10.3731687,1 8.99996165,1 C7.62675462,1 6.32902508,1.53746094 5.34582343,2.5134375 C4.51319322,3.33988281 3.98312495,4.40371094 3.81863159,5.558125 C3.79400936,5.55761719 3.76938713,5.55738281 3.7447649,5.55738281 C1.67991102,5.55738281 0,7.26835938 0,9.37144531 C0,11.4745313 1.67991102,13.1855078 3.7447649,13.1855078 L5.70622076,13.1855078 L5.70622076,15.2032422 L4.22884866,15.2032422 L4.22884866,21 L13.7711513,21 L13.7711513,15.2032422 L12.2937409,15.2032422 L12.2937409,13.1855078 L14.2552735,13.1855078 C16.3201273,13.1855078 18,11.4745313 18,9.37144531 C18,7.26835938 16.3200506,5.55738281 14.2551967,5.55738281 Z M12.6205415,16.3751172 L12.6205415,19.828125 L5.37942011,19.828125 L5.37942011,16.3751172 L8.42467592,16.3751172 L8.42467592,18.0750391 L9.57524737,18.0750391 L9.57524737,16.3751172 L12.6205415,16.3751172 L12.6205415,16.3751172 Z M6.85679221,15.2032422 L6.85679221,13.1855078 L11.1431311,13.1855078 L11.1431311,15.2032422 L6.85679221,15.2032422 Z M14.2551967,12.0136328 L6.88344711,12.0136328 C7.04548592,10.9723828 7.93276827,10.1737109 8.99996165,10.1737109 L8.99996165,9.00183594 C7.29746107,9.00183594 5.89249827,10.3242969 5.72332592,12.0136328 L3.7447649,12.0136328 C2.31433612,12.0136328 1.15057145,10.8283594 1.15057145,9.37144531 C1.15057145,7.91453125 2.31433612,6.72925781 3.7447649,6.72925781 C3.90833781,6.72925781 4.07271612,6.74503906 4.23333589,6.77617187 L4.89740738,6.90492187 L4.91593158,6.21664062 C4.9452328,5.12984375 5.38306359,4.11273437 6.14876889,3.35269531 C6.91596993,2.59125 7.92854951,2.171875 8.99996165,2.171875 C10.0713738,2.171875 11.0839534,2.59125 11.8511161,3.35269531 C12.6168597,4.11277344 13.0546905,5.12988281 13.0839917,6.21664062 L13.1025159,6.90496094 L13.7665874,6.77621094 C13.9272072,6.74507812 14.0916238,6.72929687 14.2551967,6.72929687 C15.6856255,6.72929687 16.8493518,7.91457031 16.8493518,9.37148437 C16.8493518,10.8283984 15.6856255,12.0136328 14.2551967,12.0136328 Z" id="Shape"></path>
                    </g>
                </g>
            </g>
        </g>
    </g>
</svg>