<svg xmlns="http://www.w3.org/2000/svg" width="68" height="77" viewBox="0 0 68 77">
    <g fill="#FFF" fill-rule="nonzero">
        <path d="M12.202 33.511c0 1.984 2.881 1.987 2.881 0V28.86c6.7-.843 11.917-6.97 11.917-14.38C27 6.497 20.944 0 13.5 0S0 6.496 0 14.48c0 7.514 5.365 13.71 12.202 14.412v4.62zM2.882 14.48C2.881 8.2 7.644 3.09 13.5 3.09S24.119 8.2 24.119 14.48 19.355 25.87 13.5 25.87c-5.855 0-10.619-5.11-10.619-11.39zM55.594 48.894V36.116c0-5.578-4.53-10.116-10.1-10.116-5.569 0-10.1 4.538-10.1 10.116v12.968c0 5.349-4.344 9.7-9.685 9.7-5.34 0-9.685-4.351-9.685-9.7v-3.31c0-1.944-3.024-1.947-3.024 0v3.31c0 7.019 5.701 12.73 12.709 12.73s12.71-5.711 12.71-12.73V36.116c0-3.907 3.174-7.087 7.075-7.087 3.902 0 7.077 3.18 7.077 7.087v12.778c-4.2.722-7.406 4.392-7.406 8.8v10.374c0 4.926 4 8.932 8.917 8.932S63 72.994 63 68.068V57.695c0-4.409-3.207-8.08-7.406-8.8zm4.382 19.174c0 3.255-2.644 5.903-5.894 5.903-3.249 0-5.893-2.648-5.893-5.903V57.695c0-3.255 2.644-5.903 5.893-5.903 3.25 0 5.894 2.648 5.894 5.903v10.373z"/>
        <path d="M53.5 62c.828 0 1.5-.642 1.5-1.434v-4.184c0-1.841-3-1.844-3 0v4.184c0 .792.672 1.434 1.5 1.434zM58.803 45.766c.747.488 1.774.186 2.21-.658l1.757-3.398c1.044-2.02-1.748-3.854-2.794-1.832l-1.756 3.399c-.45.869-.188 1.982.583 2.489zM67.556 44.531c-.677-.626-1.885-.71-2.697-.189l-3.179 2.042c-1.89 1.215.564 3.483 2.452 2.27l3.178-2.042c.813-.522.923-1.453.246-2.08zM54.335 65.248c-1.147-.766-2.67.368-2.27 1.685.191.626.783 1.067 1.437 1.067.637 0 1.215-.418 1.42-1.02a1.515 1.515 0 0 0-.587-1.732zM15.888 38.925a1.516 1.516 0 0 0-1.963-.813 1.517 1.517 0 0 0-.813 1.963 1.516 1.516 0 0 0 1.963.813 1.516 1.516 0 0 0 .813-1.963zM15.533 23.507v-.194A5.056 5.056 0 0 0 19 18.503c0-2.785-2.244-5.052-5-5.052a1.947 1.947 0 0 1-1.935-1.955c0-1.078.868-1.955 1.935-1.955 1.067 0 1.934.877 1.934 1.955 0 .856.686 1.55 1.533 1.55.847 0 1.533-.694 1.533-1.55a5.057 5.057 0 0 0-3.467-4.809v-.194c0-1.99-3.066-1.992-3.066 0v.194A5.056 5.056 0 0 0 9 11.497c0 2.786 2.243 5.052 5 5.052 1.067 0 1.934.877 1.934 1.954A1.947 1.947 0 0 1 14 20.458a1.947 1.947 0 0 1-1.935-1.955 1.54 1.54 0 0 0-1.532-1.548c-.847 0-1.533.693-1.533 1.548a5.056 5.056 0 0 0 3.467 4.81v.194c0 1.99 3.066 1.992 3.066 0z"/>
    </g>
</svg>
